/* XPM */
static char *result[] = {
/* columns rows colors chars-per-pixel */
"64 64 256 2 ",
"   c #020202",
".  c #0C0D0D",
"X  c #060609",
"o  c #150C0C",
"O  c #17120C",
"+  c #021314",
"@  c #0C1313",
"#  c #021B1B",
"$  c #0B1B1B",
"%  c #09171A",
"&  c #141414",
"*  c #1A1415",
"=  c #151B1B",
"-  c #1B1B1B",
";  c #171819",
":  c #110F13",
">  c #3C0101",
",  c #3C0C0C",
"<  c #350706",
"1  c #361506",
"2  c #221D1C",
"3  c #2B1B1B",
"4  c #281614",
"5  c #3B1414",
"6  c #331919",
"7  c #3B1B1B",
"8  c #361616",
"9  c #29130B",
"0  c #23221D",
"q  c #2B241A",
"w  c #2B281A",
"e  c #372B19",
"r  c #3A321E",
"t  c #2B2307",
"y  c #1E1E20",
"u  c #061C22",
"i  c #072626",
"p  c #1C2223",
"a  c #162627",
"s  c #113838",
"d  c #242424",
"f  c #292525",
"g  c #2B2B24",
"h  c #232A2A",
"j  c #2C2C2C",
"k  c #272826",
"l  c #382928",
"z  c #2F3627",
"x  c #363829",
"c  c #262F32",
"v  c #243333",
"b  c #2C3233",
"n  c #283C3B",
"m  c #343333",
"M  c #393736",
"N  c #353B3B",
"B  c #3B3B3B",
"V  c #383A34",
"C  c #302F32",
"Z  c #221E21",
"A  c #430101",
"S  c #4C0202",
"D  c #450D0D",
"F  c #4C0B0B",
"G  c #540404",
"H  c #5C0404",
"J  c #550909",
"K  c #5C0A0A",
"L  c #441414",
"P  c #461819",
"I  c #531515",
"U  c #591717",
"Y  c #51110C",
"T  c #640303",
"R  c #6C0101",
"E  c #640C0C",
"W  c #6B0C0C",
"Q  c #7D0101",
"!  c #740509",
"~  c #6D1212",
"^  c #641B1B",
"/  c #681A1A",
"(  c #731414",
")  c #7A1515",
"_  c #7C1A1A",
"`  c #761E1E",
"'  c #710A11",
"]  c #432E18",
"[  c #4A351A",
"{  c #48351A",
"}  c #543B1D",
"|  c #49230C",
" . c #6C301F",
".. c #462727",
"X. c #582727",
"o. c #493728",
"O. c #473938",
"+. c #573A38",
"@. c #583D2A",
"#. c #6C2323",
"$. c #6B2929",
"%. c #642A2A",
"&. c #772828",
"*. c #673738",
"=. c #753736",
"-. c #7B3722",
";. c #7E1E21",
":. c #3B432A",
">. c #384026",
",. c #3F4333",
"<. c #42472B",
"1. c #5E4223",
"2. c #584828",
"3. c #464836",
"4. c #564335",
"5. c #5C4234",
"6. c #4A5135",
"7. c #4C5337",
"8. c #53583C",
"9. c #624424",
"0. c #694828",
"q. c #744E2B",
"w. c #7C4A2C",
"e. c #7B512D",
"r. c #714834",
"t. c #795337",
"y. c #624532",
"u. c #746830",
"i. c #686A1C",
"p. c #483E41",
"a. c #374444",
"s. c #2D5052",
"d. c #1C585F",
"f. c #434242",
"g. c #4B4B4B",
"h. c #4A4545",
"j. c #575E42",
"k. c #555657",
"l. c #594B44",
"z. c #764747",
"x. c #685A49",
"c. c #6D5048",
"v. c #5A6246",
"b. c #6A6C50",
"n. c #596465",
"m. c #656565",
"M. c #830101",
"N. c #8A0504",
"B. c #930302",
"V. c #9B0101",
"C. c #980D0B",
"Z. c #831C1C",
"A. c #861616",
"S. c #951919",
"D. c #8D1409",
"F. c #A50101",
"G. c #AB0000",
"H. c #A20D0D",
"J. c #B40001",
"K. c #BB0000",
"L. c #BD0A09",
"P. c #A51817",
"I. c #B81A1A",
"U. c #922A14",
"Y. c #A22A16",
"T. c #A83017",
"R. c #852423",
"E. c #8B2323",
"W. c #8C2A2A",
"Q. c #852B2B",
"!. c #942D2C",
"~. c #9A2E2E",
"^. c #972424",
"/. c #883939",
"(. c #953333",
"). c #9A3333",
"_. c #973C3A",
"`. c #A62828",
"'. c #A53A3B",
"]. c #B13123",
"[. c #880F22",
"{. c #C40303",
"}. c #C90104",
"|. c #C71818",
" X c #CF0603",
".X c #ED0000",
"XX c #DA342D",
"oX c #DE2B0F",
"OX c #84542D",
"+X c #8C5C35",
"@X c #865634",
"#X c #955F38",
"$X c #965835",
"%X c #90482B",
"&X c #A75D3A",
"*X c #AE4A2F",
"=X c #96623A",
"-X c #9C643C",
";X c #9D653A",
":X c #A4683D",
">X c #B06731",
",X c #B75815",
"<X c #D6640F",
"1X c #EB670F",
"2X c #C35935",
"3X c #C64529",
"4X c #CE6B2D",
"5X c #E87326",
"6X c #D65F09",
"7X c #864746",
"8X c #974242",
"9X c #9B595A",
"0X c #835C51",
"qX c #A84848",
"wX c #AF544B",
"eX c #9A6947",
"rX c #8A634D",
"tX c #A76D43",
"yX c #B96C45",
"uX c #AE7348",
"iX c #B37446",
"pX c #BA7749",
"aX c #A7785B",
"sX c #B97F5A",
"dX c #AA7965",
"fX c #C37D4D",
"gX c #C67348",
"hX c #C8744A",
"jX c #D06955",
"kX c #77835D",
"lX c #808337",
"zX c #FF8625",
"xX c #FC8C37",
"cX c #FF8117",
"vX c #9C9356",
"bX c #98884B",
"nX c #B88953",
"mX c #948778",
"MX c #B78D66",
"NX c #AFA270",
"BX c #CC8253",
"VX c #CD8659",
"CX c #D68958",
"ZX c #D38B58",
"AX c #EF8E4C",
"SX c #D99465",
"DX c #D59169",
"FX c #E59A69",
"GX c #E79E75",
"HX c #F6A778",
"JX c #ECA06F",
"KX c #D5A870",
"LX c #FBB389",
"PX c #FCBA93",
"IX c #F4AF82",
"UX c None",
/* pixels */
"UXUXUXUXUXUXUXUXUXUXUXUXUXUXUXUXUXUXUXUXUXUXUXUXUXUXUXUXUXUXUXUXUXUXUXUXUXUXUXUXDXBXCXSXFXFXFXFXFXFXSXCXCXDXUXUXUXUXUXUXUXUXUXUX",
"UXUXUXUXUXUXUXUXUXUXUXUXUXUXUXUXUXUXUXUXUXUXUXUXUXUXUXUXUXUXUXUXUXUXUXUXUXUXUXSXCXSXHXLXLXLXHXHXHXJXJXCXCXAXBXuXaXUXUXUXUXUXUXUX",
"UXUXUXUXUXUXUXUXUXUXUXUXUXUXUXUXUXUXUXUXUXUXUXUXUXUXUXUXUXUXUXUXUXUXUXUXUXb.u.lXKXIXPXNXvXvXvXvXnXVXZXBXhXCXCXCXpXtXaXUXUXUXUXUX",
"UXUXUXUXUXUXUXUXUXUXUXUXUXUXUXUXUXUXUXUXUXUXUXUXUXUXUXUXUXUXUXUXUXUXUXUXUXkXMXKXLXPXIXnXbXi.i.t.u.iXfXCXCXCXhXhXfX:XtXaXUXUXUXUX",
"UXUXUXUXUXUXUXUXUXUXUXUXUXUXUXUXUXUXUXUXUXUXUXUXUXUXUXUXUXUXUXUXUXUXUXUXUXUXLXHXFXJXHXHXHXGXBX2X*X*XyXfXBX3X X*XuX:X;X;XUXUXUXUX",
"UXUXUXUXUXUXUXUXUXUXUXUXUXUXUXUXUXUXUXUXUXUXUXUXUXUXUXUXUXUXUXUXUXUXUXUXUXSX>X:XtXiXnXDXJXLXSX2XoX|.2XiXiX&X].:X:X#X+XOXUXUXUXUX",
"UXUXUXUXUXUXUXUXUXUXUXUXUXUXUXUXUXUXUXUXUXUXUXUXUXUXUXUXUXUXUXUXUXUXUXUXeX>X+Xg.*.#.*.k.aXFXSXiXnXSXFXBXfX;X#X=X=X@XU.-.UXUXUXUX",
"UXUXUXUXUXUXUXUXUXUXUXUXUXUXUXUXUXUXUXUXUXUXUXUXUXUXUXUXUXUXUXUXUXUXUXUX,X6X*X/ W W Q ' $XcXAXeX:XVXpXtX=X%XD.%X@XOXr.UXUXUXUXUX",
"UXUXUXUXUXUXUXUXUXUXUXUXUXUXUXUXUXUXUXUXUXUXUXUXUXUXUXUXUXUXUXUXzXzXUXUX5X6XoX.X X{.P.%X<XzXxXpX:X&XB./.@XY.K.{.-.2.UXUXUXUXUXUX",
"UXUXUXUXUXUXUXUXUXUXUXUXUXUXUXUXUXUXUXUXUXUXUXUXUXUXUXUXUXUXUXUXhXAXsXmXaX4X1X1X1X1X4X5XzXAXAXDXBX&X%XF.C.T.T.J.Y | +.UXUXUXUXUX",
"UXUXUXUXUXUXUXUXUXUXUXUXUXUXUXUXUXUXUXUXUXUXUXUXB B B B B f.n.n.d.d.s.n.n.b.>X<X<X<X6X1X4XyXgXyX=Xt.x.+.O.y.T.K.M.M.T _ XXUXUXUX",
"UXUXUXUXUXUXUXUXUXUXUXUXUXUXUXUXUXUXUXUXk.g.h.a.B f.a.O.B a.+.%.%.*.z.z.z.l.*.U.T.U.T.T.T.Y.^.O.+.*./.).`.}.K.F.V.N.N.T H.I.`./.",
"UXUXUXUXUXUXUXUXUXUXUXUXUXUXUXUXUXg.f.f.B f.f.B B B B a.O./.(.).).'.).).^.C.A.Z.U.R.(.).(.).`.Q.E.{.}.{.K.F.B.M.M.T J K K > > X.",
"UXUXUXUXUXUXUXUXUXUXUXUXUXUXUXn.f.B B ,.f.B M B B B h.=.(.~.=.=.).'.).(.^.}.{.S.W._.(.) B.L.P.E.!.H.V.B.M.R H S G J H T H I UXUX",
"UXUXUXUXUXUXUXUXUXUXUXUXUXUXUXo.% j m M B m d N B N =.).~.~.|.|.(.).!.~.E.^.{.L.W.).!.F.J.Y.).~.^.V.M.R G A > > A S E T T E W T ",
"UXUXUXUXUXUXUXUXUXUXUXUXUXUXUX-X@Xe.0.} o.j d b B B B O.+./.`.^.E.E.!.~.^.` R.~.).).~.V.V.C.C.C.B.^.qXwXwXqXqX#.> / UX7X/ T S A ",
"UXUXUXUXUXUXUXUXUXUXUXUXUXUXeX:XpXiX:X+Xe.} r x M N M M s p.qX'.'.).~.(.I.K.S.R.R.&.W.(.S.V.B.Q H H T / #.#.$.S R UXUXUXUXQ.! M.",
"UXUXUXUXUXUXUXUXUXUXUXUXUXtX:XpXfXfXfX#X+Xe.} ] f j j m %.&.E.).(.!.E.E.).].I.W.S.B.N.S.S.V.V.S._.8XqXqX8X~ H ) UXUXoXUXUXUX%.! ",
"UXUXUXUXUXUXUXUXUXUXUXUXeX;X;XiXiXiX:X+Xe.q.0.] % f j j X.$.$.%.$.$.W.~.=.=.(._.`.K.G.V.V.B.M.S.8X8X9XwXwX`.C.;./.I..XXXUXUXUXUX",
"UXUXUXUXUXUXUXUXUXUXUXrX@X#X#X#X#X#X+Xe.q.9.1...p d j m n v N N N n /.8XO.n =.`.).P.J.F.V.Q Q B.M.R U U &.H.M.G D L S Z.9XUXUXUX",
"UXUXUXUXUXUXUXUXUXUXc.x O.y.r.OXe.e.0.0.9.} [ e p d d C m m m M B B B O.p.a.Q.G.~.).`.J.H.B.B.{. X|.wXjXjX'.H X.0X/.) ) E.UXUXUX",
"UXUXUXUXUXUXUXUXUXrX;X;Xt.4.M m b j j l { ] e d d j C m m m M B B N ^.K.+.s.*.( &.l.*.M.! A.N.V.V.F.V.A.N.F.V.H G G S T R.UXUXUX",
"UXUXUXUXUXUXUXaX>X:X:XuX:X:X+Xr.5.l u d d d p k m C j f d d d C B B +.+.O.a.W.J.=.s.O.H R M.M.M.M.M.' V.J.F.G.! F G S G 9XUXUXUX",
"UXUXUXUXUXUXMXpXnXVXfXwXyXuXtX#X+Xe.1.= y k d d d d Z d m m C j C m N N B n E.K.R.n B O.O.O.D.G.G.` v P.J.V.N.T 5 6 8 8 q UXUXUX",
"UXUXUXUXUX9X&X$X&XwX'.'.'.qX$X&X=XOXOXt.x.UXg.N d k d k j B B M m m m M M N X.R X.m M N B n %.G.B.l a W R R T L a = =   V UXUXUX",
"UXUXUX7X=.Q ! ! ! [.).'.).).eX$X$XrXUXUXUXUXUXk.C f y ; ; Z h j j C b v j v l L f v c h a a d K 7 y d - , S G 5 % *   B UXUXUXUX",
"UX%X/.E.Z.E.R.Z.R.!.).).).$X*X%XUXUXUXUXUXUXUX7.V V M 3.B j h j j m o.+.4.4.+.4.5.5.y.@.@.@.V n m z x g f 6 5 - f g - 7.mXUXUXUX",
"_ ! _ ).).E.Z.Z.Z.R.!.!.^./.9XUXUXUXUXUXb.v.8.7.8.8.v.b.b.b.B B +.q.e.e.OX+X+X+X+X+X#X=X+X+Xx.v.j.j.8.7.6.z d g 6.7.6.6.b.UXUXUX",
"/ ' T ' W.(.(.R.R.Z.) _ 7XUXUXUXUXUXUXv.6.:.<.:.x <.6.7.v.v.,.N r [ 1.1.1.9.9.1.1.{ e q ] } { z g >.<.8.v.x 4 z :.:.<.6.6.8.UXUX",
"UXUX=.~ T ( W.).R.H / UXUXUXUXUXUXUXUX:.:.:.>.x :.:.B 3.3.6.6.<.] ] [ 1.1.2.9.1.9.9.} { [ @.0.2.m 0 w z :.g d z >.z >.x >.:.UXUX",
"UXUXUXUX=.^ T _ ~ #.UXUXUXUXUXUXUXUXUXV :.m V m k 0 0 d k g w 0 4 t e { [ [ [ [ [ } [ [ { { o.4.3.k 0 q 0 d p x 2.9.0.2.0.0XUXUX",
"UXUXUXUXUXUXUXUXUXUXUXUXUXUXUXUXUXUXUXB j j k Z * : & o . X X @ & = * 2 q q q q q w g e 0 & a N B M g y k d - - ] { { 2.rXUXUXUX",
"UXUXUXUXUXUXUXUXUXUXUXUXUXUXUXUXUXUXg.g f d - % # + + + * - ; & ; - - = ; ; = = = y d f j C m M M M C d 2 ; & @ X X   X k.UXUXUX",
"UXUXUXUXUXUXUXUXUXUXUXUXUXUXUXUXm.M - p a a 2 5 L 5 D 6 p d j k @ & - - 0 y 2 2 - * d m m m N m m j d - - * & & & & * . = g.UXUX",
"UXUXUXUXUXUXUXUXUXUXUXUXUXUXUXk.m X * l X./ ( Z.Z.( ( / e y j m & & ; d d d k d d d b m m N M B N m M 2 ; ; & & & & & & X   UXUX",
"UXUXUXUXUXUXUXUXUXUXUXUXUXUXUXk k l b &.E._ ` X...Z # I ( 7 p d - ; O & & & & : = m m m C k j b o.#.Z.7 $ * : & & & & . . . UXUX",
"UXUXUXUXUXUXUXUXUXUXUXUXUXUXUXf k m B O...m d a i l ~ ~ X.p d d d 0 & & & & & ; ; ; g k j m m $.Z.) / 2 y & : & & & & & . . UXUX",
"UXUXUXUXUXUXUXUXUXUXUXUXUXUXUX- d d j p a p a a j X.A.^ i - - - - - & & . . & . - m m v v a $ 7 P 7 2 y 2 * & & & : & & .   UXUX",
"UXUXUXUXUXUXUXUXUXUXUXUXUXUXUXB ; k d d d d X.#.&._ ( F & * - ; ; - & X k g.k   k N O.&.$./ ^ L 3 # $ # # = - ; & ; ; &   B UXUX",
"UXUXUXUXUXUXUXUXUXUXUXUXUXUXUXUXM & d d i ^ A.A.( ~ H F + = 0 y - ; X d UXUXUXd 0 c ..#.) ( ~ ~ K L L P P = % ; * ; ; . B UXUXUX",
"UXUXUXUXUXUXUXUXUXUXUXUXUXUXUXUXUXk ; p ^ Z.( ~ E H F + 3 2 p 2 & . - UXUXUXUXk.k f k i l ! ~ K G H H E ~ F < * & & . j UXUXUXUX",
"UXUXUXUXUXUXUXUXUXUXUXUXUXUXUXUXUX2 $ ^ _ ( W E J 8 * I ( U = * & ; UXUXUXUXUXUXf.; k b X.' E D 8 4 5 J G G F 3 - & & & UXUXUXUX",
"UXUXUXUXUXUXUXUXUXUXUXUXUXUXUXUXUXO & I E K J 5 - P ~ ( W K @ & ; ; k.UXUXUXUXUXUX- - = 2 - = = 3 D G G F 8 - - - ; & O UXUXUXUX",
"UXUXUXUXUXUXUXUXUXUXUXUXUXUXUXUXUXO O - f q ; 6 S E ' E H F ; = & & & k.UXUXUXUXUX& 2 = 3 / ~ E H G S 5 = = - - d y @ . UXUXUXUX",
"UXUXUXUXUXUXUXUXUXUXUXUXUXUXUXUXUX- - y d - = 3 6 3 e I E L = - & * & - UXUXUXUXUXj   - 2 5 ....l M l b j y - 2 - & d UXUXUXUXUX",
"UXUXUXUXUXUXUXUXUXUXUXUXUXUXUXUXUX- ; k j k d = = = = y 6 - & & . . . . UXUXUXUXUXUXj & - a a h j j j j j k a - * d k.UXUXUXUXUX",
"UXUXUXUXUXUXUXUXUXUXUXUXUXUXUXUXUXd k - d d - - - - 2 - # $ + + & & & d UXUXUXUXUXUXUX& - k f k d k k d h f ..f   N UXUXUXUXUXUX",
"UXUXUXUXUXUXUXUXUXUXUXUXUXUXUXUXUXm - 2 ; - ; - - - ; * 7 5 5 6 ; - - k UXUXUXUXUXUXUX& & ; - d - - y 2 - 3 J K F A UXUXUXUXUXUX",
"UXUXUXUXUXUXUXUXUXUXUXUXUXUXUXUXUXUXN ; & - - - - - & * , G F , @ & & & UXUXUXUXUXUXUX. : & ; ; - ; ; ; & . . O G E UXUXUXUXUXUX",
"UXUXUXUXUXUXUXUXUXUXUXUXUXUXUXUXUXUXUXg.C & ; = - - - & + + + + - ; & & UXUXUXUXUXUXUX& & d k C m m j f d 2 * @ @ < UXUXUXUXUXUX",
"UXUXUXUXUXUXUXUXUXUXUXUXUXUXUXUXUXUXUXUXUXg.d : & & & @ & * - - * & & & UXUXUXUXUXUXUX- - 2 - - 2 y - - - $ $ - - = UXUXUXUXUXUX",
"UXUXUXUXUXUXUXUXUXUXUXUXUXUXUXUXUXUXUXUXUXUXUXg . 4 A , 2 ; p - = = = = UXUXUXUXUXUXUX- - # $ y d k j f k P L ; - - UXUXUXUXUXUX",
"UXUXUXUXUXUXUXUXUXUXUXUXUXUXUXUXUXUXUXUXUXUXUXUXg O 9 > A 1 L 5 , , , 8 UXUXUXUXUXUXUX= 2 I I k h m M h i U ! 6 = 2 UXUXUXUXUXUX",
"UXUXUXUXUXUXUXUXUXUXUXUXUXUXUXUXUXUXUXUXUXUXUXUXUXe D D G G A A S S > 1 UXUXUXUXUXUXUXx @ L T U l v v X...e 8 % w t UXUXUXUXUXUX",
"UXUXUXUXUXUXUXUXUXUXUXUXUXUXUXUXUXUXUXUXUXUXUXUXUX^ G H K H H A , S < 9 UXUXUXUXUXUXUXUXl # 5 W T X.X.) A.P 4 5 e 3.UXUXUXUXUXUX",
"UXUXUXUXUXUXUXUXUXUXUXUXUXUXUXUXUXUXUXUXUXUXUX@X) H A A A A G J 4 4 A A UXUXUXUXUXUXUXUXx., 6 J W ' ( ~ E J F 1 l.UXUXUXUXUXUXUX",
"UXUXUXUXUXUXUXUXUXUXUXUXUXUXUXUXUXUXUXUXUXz.#.T H K K H S S A A A A A A UXUXUXUXUXUXUXUXUXE G J J G F S J D   3.UXUXUXUXUXUXUXUX",
"UXUXUXUXUXUXUXUXUXUXUXUXUXUXUXUXUXUXUXz.#.R T E T K H T H G G G G S A S UXUXUXUXUXUXUXUXUX) ~ G S J K ~ ~ Y X 3.UXUXUXUXUXUXUXUX",
"UXUXUXUXUXUXUXUXUXUXUXUXUXUXUXUXUXUX=.R ! ( ( ~ ~ E H H G G S S A S F +.UXUXUXUXUXUXUXUXUXE J K ( _ _ _ ) ~ F > 5.UXUXUXUXUXUXUX",
"UXUXUXUXUXUXUXUXUXUXUXUXUXUXUXUXUXz.H K K K K H G G G S S S J P X.l.UXUXUXUXUXUXUXUXUXUXUXJ J _ _ Z.Z._ ) ( ~ A S X.UXUXUXUXUXUX",
"UXUXUXUXUXUXUXUXUXUXUXUXUXUXUXUXUXUXUX, > > > > > > A A A D UXUXUXUXUXUXUXUXUXUXUXUXUXUXUXG J ( _ _ ) ( ( ' E S A > UXUXUXUXUXUX",
"UXUXUXUXUXUXUXUXUXUXUXUXUXUXUXUXUXUXUXUXUXUXUXUXUXUXUXUXUXUXUXUXUXUXUXUXUXUXUXUXUXUXUXUXUXI S K E ~ ~ ~ E J J A S +.UXUXUXUXUXUX",
"UXUXUXUXUXUXUXUXUXUXUXUXUXUXUXUXUXUXUXUXUXUXUXUXUXUXUXUXUXUXUXUXUXUXUXUXUXUXUXUXUXUXUXUXUXUXF S J S S S G F S A +.UXUXUXUXUXUXUX",
"UXUXUXUXUXUXUXUXUXUXUXUXUXUXUXUXUXUXUXUXUXUXUXUXUXUXUXUXUXUXUXUXUXUXUXUXUXUXUXUXUXUXUXUXUXUXc.A > A A > A A A +.UXUXUXUXUXUXUXUX"
};
